<?xml version="1.0" encoding="UTF-8"?>
<svg version="1.1" xmlns="http://www.w3.org/2000/svg" width="1024" height="512">
<path d="M0 0 C3.9480524 0.021486 7.89428609 0.00000786 11.84228516 -0.02539062 C30.35575518 -0.04254543 48.1771106 1.72341479 66.44775391 4.52148438 C66.44775391 5.18148437 66.44775391 5.84148437 66.44775391 6.52148438 C67.12580078 6.57046875 67.80384766 6.61945313 68.50244141 6.66992188 C74.94074732 7.1871265 81.14508368 8.11329558 87.44775391 9.52148438 C87.44775391 10.18148437 87.44775391 10.84148437 87.44775391 11.52148438 C88.57181641 11.62332031 89.69587891 11.72515625 90.85400391 11.83007812 C95.78527038 12.44648643 100.27404613 13.94361951 104.94775391 15.58398438 C105.77017578 15.86564453 106.59259766 16.14730469 107.43994141 16.4375 C109.44492733 17.1252568 111.44669113 17.82239514 113.44775391 18.52148438 C113.44775391 19.18148437 113.44775391 19.84148437 113.44775391 20.52148438 C114.06263672 20.65425781 114.67751953 20.78703125 115.31103516 20.92382812 C116.11927734 21.10042969 116.92751953 21.27703125 117.76025391 21.45898438 C118.56076172 21.63300781 119.36126953 21.80703125 120.18603516 21.98632812 C122.44775391 22.52148438 122.44775391 22.52148438 125.44775391 23.52148438 C125.44775391 24.18148437 125.44775391 24.84148437 125.44775391 25.52148438 C128.74775391 26.51148437 132.04775391 27.50148438 135.44775391 28.52148438 C135.44775391 29.18148437 135.44775391 29.84148437 135.44775391 30.52148438 C138.41775391 31.51148438 141.38775391 32.50148437 144.44775391 33.52148438 C144.44775391 34.18148437 144.44775391 34.84148437 144.44775391 35.52148438 C145.39650391 35.83085937 146.34525391 36.14023438 147.32275391 36.45898438 C150.44775391 37.52148438 150.44775391 37.52148438 152.44775391 38.52148438 C152.44775391 39.18148437 152.44775391 39.84148437 152.44775391 40.52148438 C153.33462891 40.76898438 154.22150391 41.01648438 155.13525391 41.27148438 C158.65797721 42.60081392 160.60142491 44.08177381 163.44775391 46.52148438 C164.77699084 47.5062048 166.11066008 48.4849591 167.44775391 49.45898438 C170.74086171 51.91339805 173.5781302 54.57634425 176.44775391 57.52148438 C177.37587891 58.24335938 178.30400391 58.96523437 179.26025391 59.70898438 C183.66334622 63.29583765 187.21146053 67.88060682 190.44775391 72.52148438 C190.44775391 73.18148437 190.44775391 73.84148437 190.44775391 74.52148438 C191.43775391 74.85148437 192.42775391 75.18148437 193.44775391 75.52148438 C195.05322266 77.51757812 195.05322266 77.51757812 196.63525391 79.95898438 C197.16505859 80.76207031 197.69486328 81.56515625 198.24072266 82.39257812 C199.44775391 84.52148438 199.44775391 84.52148438 199.44775391 86.52148438 C200.10775391 86.52148438 200.76775391 86.52148438 201.44775391 86.52148438 C203.60891243 91.28063135 205.70754399 96.06311743 207.69775391 100.89648438 C208.20048828 102.11464844 208.20048828 102.11464844 208.71337891 103.35742188 C209.44775391 105.52148438 209.44775391 105.52148438 209.44775391 108.52148438 C210.10775391 108.52148438 210.76775391 108.52148438 211.44775391 108.52148438 C214.04761421 119.1045148 214.92383714 129.08061418 214.83886719 139.95458984 C214.82281241 142.38761828 214.83879915 144.81897515 214.85791016 147.25195312 C214.87006502 157.96363316 213.65897817 168.04629215 211.44775391 178.52148438 C210.78775391 178.52148438 210.12775391 178.52148438 209.44775391 178.52148438 C209.32400391 179.53210938 209.20025391 180.54273438 209.07275391 181.58398438 C208.46690055 185.40086049 207.57581479 188.83648549 206.44775391 192.52148438 C205.78775391 192.52148438 205.12775391 192.52148438 204.44775391 192.52148438 C204.32400391 193.24335938 204.20025391 193.96523438 204.07275391 194.70898438 C203.45726081 197.47870332 202.56331016 199.91851977 201.44775391 202.52148438 C200.78775391 202.52148438 200.12775391 202.52148438 199.44775391 202.52148438 C199.34333984 203.08996094 199.23892578 203.6584375 199.13134766 204.24414062 C197.73412933 208.89887367 194.30207743 212.65366917 191.44775391 216.52148438 C190.86380859 217.32295898 190.86380859 217.32295898 190.26806641 218.140625 C185.24440097 225.01216737 180.19563311 231.24243233 173.44775391 236.52148438 C169.30035769 239.92195665 169.30035769 239.92195665 165.38525391 243.58398438 C162.03221734 246.93702094 158.66900573 249.41085846 154.44775391 251.52148438 C154.11775391 252.18148437 153.78775391 252.84148437 153.44775391 253.52148438 C151.84619141 254.45117188 151.84619141 254.45117188 149.82275391 255.39648438 C146.99469843 256.74947494 144.27004337 258.17351037 141.57275391 259.77148438 C138.44775391 261.52148438 138.44775391 261.52148438 136.44775391 261.52148438 C136.44775391 262.18148438 136.44775391 262.84148437 136.44775391 263.52148438 C135.79548828 263.77542969 135.14322266 264.029375 134.47119141 264.29101562 C130.5650294 265.82928296 126.75468211 267.36523002 123.01025391 269.27148438 C120.44775391 270.52148438 120.44775391 270.52148438 117.44775391 270.52148438 C117.44775391 271.18148438 117.44775391 271.84148437 117.44775391 272.52148438 C115.84519283 273.02660682 114.24063599 273.52540064 112.63525391 274.02148438 C111.29527344 274.43914062 111.29527344 274.43914062 109.92822266 274.86523438 C107.44775391 275.52148438 107.44775391 275.52148438 104.44775391 275.52148438 C104.44775391 276.18148438 104.44775391 276.84148437 104.44775391 277.52148438 C102.36573863 278.02694473 100.28208324 278.52565273 98.19775391 279.02148438 C96.45751953 279.43914062 96.45751953 279.43914062 94.68212891 279.86523438 C91.44775391 280.52148438 91.44775391 280.52148438 87.44775391 280.52148438 C87.44775391 281.18148438 87.44775391 281.84148437 87.44775391 282.52148438 C86.81683838 282.63741943 86.18592285 282.75335449 85.53588867 282.87280273 C82.6932471 283.39748918 79.8517544 283.92815461 77.01025391 284.45898438 C76.01703125 284.64138672 75.02380859 284.82378906 74.00048828 285.01171875 C73.05625 285.18896484 72.11201172 285.36621094 71.13916016 285.54882812 C69.82733765 285.79234009 69.82733765 285.79234009 68.48901367 286.04077148 C66.46547327 286.32836827 66.46547327 286.32836827 65.44775391 287.52148438 C47.0246267 291.61975821 27.66857462 290.99100217 8.91210938 290.91259766 C4.77767785 290.89550692 0.6438263 290.90564656 -3.49058533 290.92295456 C-21.7336035 290.98726453 -39.49584882 290.47482208 -57.55224609 287.52148438 C-57.55224609 286.86148437 -57.55224609 286.20148438 -57.55224609 285.52148438 C-58.21869141 285.4725 -58.88513672 285.42351562 -59.57177734 285.37304688 C-66.32982408 284.82484169 -72.90413524 283.84596294 -79.55224609 282.52148438 C-79.55224609 281.86148437 -79.55224609 281.20148438 -79.55224609 280.52148438 C-80.68662109 280.39773438 -81.82099609 280.27398437 -82.98974609 280.14648438 C-87.58562394 279.57919355 -92.05125858 278.59463649 -96.55224609 277.52148438 C-96.55224609 276.86148437 -96.55224609 276.20148438 -96.55224609 275.52148438 C-97.15552734 275.38871094 -97.75880859 275.2559375 -98.38037109 275.11914062 C-99.17958984 274.94253906 -99.97880859 274.7659375 -100.80224609 274.58398438 C-101.98560547 274.32294922 -101.98560547 274.32294922 -103.19287109 274.05664062 C-105.32103312 273.57392838 -107.43757452 273.0598526 -109.55224609 272.52148438 C-109.55224609 271.86148437 -109.55224609 271.20148438 -109.55224609 270.52148438 C-110.70724609 270.19148438 -111.86224609 269.86148437 -113.05224609 269.52148438 C-124.65073285 265.64312603 -135.44860835 259.3090564 -145.55224609 252.52148438 C-146.21353516 252.10769531 -146.87482422 251.69390625 -147.55615234 251.26757812 C-148.92438916 250.40727145 -150.24667009 249.474202 -151.55224609 248.52148438 C-151.55224609 247.86148438 -151.55224609 247.20148438 -151.55224609 246.52148438 C-152.21224609 246.33585938 -152.87224609 246.15023437 -153.55224609 245.95898438 C-160.64594961 242.55991811 -166.10079683 236.08008743 -171.55224609 230.52148438 C-172.41849609 229.67585937 -173.28474609 228.83023438 -174.17724609 227.95898438 C-181.55224609 220.38990543 -181.55224609 220.38990543 -181.55224609 217.52148438 C-182.21224609 217.52148438 -182.87224609 217.52148438 -183.55224609 217.52148438 C-186.55224609 213.13686899 -186.55224609 213.13686899 -186.55224609 210.52148438 C-187.21224609 210.52148438 -187.87224609 210.52148438 -188.55224609 210.52148438 C-193.04140123 202.34947866 -197.36202639 194.30512893 -200.55224609 185.52148438 C-201.27081787 183.70982788 -201.27081787 183.70982788 -202.00390625 181.86157227 C-203.50020886 177.86019348 -204.48925502 173.84581762 -205.21240234 169.63867188 C-205.33833267 168.90921356 -205.464263 168.17975525 -205.5940094 167.42819214 C-206.91109895 159.17654545 -207.05294553 150.98569384 -206.98974609 142.64648438 C-206.98869873 141.86720581 -206.98765137 141.08792725 -206.98657227 140.28503418 C-206.95345557 128.3194832 -206.03852484 117.03865523 -202.55224609 105.52148438 C-201.89224609 105.52148438 -201.23224609 105.52148438 -200.55224609 105.52148438 C-200.44396484 104.65265625 -200.33568359 103.78382813 -200.22412109 102.88867188 C-198.55909552 94.54418326 -193.36150704 86.46819463 -188.55224609 79.52148438 C-187.89224609 79.52148438 -187.23224609 79.52148438 -186.55224609 79.52148438 C-186.18873047 78.43480469 -186.18873047 78.43480469 -185.81787109 77.32617188 C-184.38772789 74.1569039 -182.67830052 72.17609334 -180.30224609 69.64648438 C-177.54712787 66.68384923 -174.8585309 63.71942746 -172.30224609 60.58398438 C-169.99788945 57.85949641 -167.69214332 56.25669074 -164.55224609 54.52148438 C-163.93349609 53.90273437 -163.31474609 53.28398437 -162.67724609 52.64648438 C-159.92063285 49.88987113 -156.89759384 47.53198893 -153.55224609 45.52148438 C-152.89224609 45.52148438 -152.23224609 45.52148438 -151.55224609 45.52148438 C-151.22224609 44.53148437 -150.89224609 43.54148438 -150.55224609 42.52148438 C-147.48974609 41.33398438 -147.48974609 41.33398438 -144.55224609 40.52148438 C-144.55224609 39.86148438 -144.55224609 39.20148438 -144.55224609 38.52148438 C-138.80224609 35.52148438 -138.80224609 35.52148438 -136.55224609 35.52148438 C-136.55224609 34.86148438 -136.55224609 34.20148438 -136.55224609 33.52148438 C-133.58224609 32.53148437 -130.61224609 31.54148438 -127.55224609 30.52148438 C-127.55224609 29.86148438 -127.55224609 29.20148438 -127.55224609 28.52148438 C-124.25224609 27.53148437 -120.95224609 26.54148437 -117.55224609 25.52148438 C-117.55224609 24.86148438 -117.55224609 24.20148438 -117.55224609 23.52148438 C-116.50037109 23.14056641 -116.50037109 23.14056641 -115.42724609 22.75195312 C-108.97978464 20.41372044 -108.97978464 20.41372044 -102.55224609 18.02148438 C-101.92318359 17.786875 -101.29412109 17.55226563 -100.64599609 17.31054688 C-99.05844259 16.71225246 -97.4759647 16.10046842 -95.89599609 15.48242188 C-90.37588987 13.37446922 -85.45023909 11.96661592 -79.55224609 11.52148438 C-79.55224609 10.86148438 -79.55224609 10.20148438 -79.55224609 9.52148438 C-77.1786064 9.01414154 -74.80367184 8.51546051 -72.42724609 8.02148438 C-71.76208984 7.87839844 -71.09693359 7.7353125 -70.41162109 7.58789062 C-66.39168187 6.76025608 -62.6531971 6.3681778 -58.55224609 6.52148438 C-58.55224609 5.86148438 -58.55224609 5.20148438 -58.55224609 4.52148438 C-38.93809152 1.51766188 -19.87837348 -0.12788265 0 0 Z " fill="#5D5D5D" transform="translate(219.55224609375,100.478515625)"/>
<path d="M0 0 C16.75218036 2.85357782 33.86566971 6.6218899 50 12 C50 12.66 50 13.32 50 14 C51.155 14.20625 52.31 14.4125 53.5 14.625 C60.26976053 16.14365086 66.69954369 18.57865362 73.10107422 21.22070312 C74.80710449 21.92083794 76.52969509 22.5802925 78.25390625 23.234375 C81.14699602 24.56774781 82.98422009 25.5234704 85 28 C85.44436219 31.57267197 85.24227813 34.85742488 84.984375 38.4453125 C85.00933189 44.12300482 87.22234287 47.87525044 91 52 C95.20492396 55.3693301 98.89208045 56.06992134 104.1875 56.125 C106.75 56.27734375 106.75 56.27734375 109 57 C110.71705417 59.36542099 111.69647918 61.70983612 112.78515625 64.41796875 C115.12826708 69.39802104 119.53936775 72.02624517 124 75 C127.32774753 75.2615884 130.63152136 75.31442543 133.96875 75.36328125 C137 76 137 76 138.7265625 78.375 C139.14679688 79.24125 139.56703125 80.1075 140 81 C145.7985219 86.42035743 149.89578937 88.28493355 157.8125 88.125 C159.55466797 88.09792969 159.55466797 88.09792969 161.33203125 88.0703125 C162.21246094 88.04710937 163.09289062 88.02390625 164 88 C164.804375 89.5778125 164.804375 89.5778125 165.625 91.1875 C168.77069833 96.67857764 172.95550808 99.98221939 179 102 C186.34732211 102.97485419 191.86049006 102.31433331 198.0625 98.19140625 C200.15977847 96.90174912 201.5491596 96.2579832 204 96 C206.453125 96.77734375 206.453125 96.77734375 209.25 97.9375 C216.82540903 100.58332301 224.07975733 101.17178536 232 100 C234.32185406 98.67378845 235.96103665 97.21919225 237.88671875 95.37890625 C240.88955929 93.41956667 243.38411963 93.58703701 246.9375 93.5 C253.76204019 93.27348957 258.14951081 91.9136192 263 87 C263.83798698 85.61023082 264.63142222 84.19248835 265.375 82.75 C266.85622676 80.04803808 267.45089263 79.17567905 270.4296875 78.22265625 C272.33386123 77.94573348 274.24179682 77.69369796 276.15234375 77.46484375 C282.57658448 76.41616797 287.42692529 73.11717708 291.5 68.125 C294.06150665 64.40303177 294.81322356 61.48263456 295 57 C299.29 57 303.58 57 308 57 C308 56.34 308 55.68 308 55 C308.886875 54.62875 309.77375 54.2575 310.6875 53.875 C314.99674704 51.43580356 317.7537294 48.4925412 320 44 C320.09720427 42.06449136 320.12977914 40.12544208 320.125 38.1875 C320.12886719 36.63095703 320.12886719 36.63095703 320.1328125 35.04296875 C320.01076175 32.24657058 319.63363355 29.72060121 319 27 C320.30710937 26.54560547 320.30710937 26.54560547 321.640625 26.08203125 C327.56843867 23.99703185 333.4163593 21.87001352 339.1875 19.375 C343.88628833 17.37285318 348.54660574 15.93369541 353.4921875 14.6796875 C355.70686314 14.07944831 357.75234883 13.36149441 359.875 12.5 C364.37587465 10.7274906 369.03560338 9.76829645 373.75390625 8.74609375 C378.42071935 7.6734568 382.98481656 6.30433289 387.5703125 4.9296875 C388.74335938 4.58164063 389.91640625 4.23359375 391.125 3.875 C392.30320312 3.52179688 393.48140625 3.16859375 394.6953125 2.8046875 C397.63526337 2.08881294 399.99825252 1.83008977 403 2 C403.20871753 11.24154826 403.14982548 19.9400212 401 29 C400.34 29 399.68 29 399 29 C398.896875 29.969375 398.79375 30.93875 398.6875 31.9375 C395.05891502 55.38374143 374.44892881 76.56712614 356.11572266 90.35400391 C338.93838793 102.90184357 319.82805268 112.36274134 300 120 C299.05125 120.39316406 298.1025 120.78632813 297.125 121.19140625 C284.85189365 125.98934856 271.8672367 128.34325125 259 131 C258.17048828 131.17305664 257.34097656 131.34611328 256.48632812 131.52441406 C238.52964333 135.23268572 220.97281419 136.44459476 202.6875 136.4375 C201.61818237 136.43790283 200.54886475 136.43830566 199.44714355 136.4387207 C163.56251325 136.36135727 128.86095294 130.69174366 95.5 117.01171875 C93.94797191 116.38363238 92.38657071 115.77763188 90.8125 115.20703125 C77.59556947 110.31952048 64.52735423 103.0639003 53 95 C51.55560547 94.00033203 51.55560547 94.00033203 50.08203125 92.98046875 C35.64418937 82.45250206 22.14409352 69.42354363 13 54 C12.65291992 53.44876465 12.30583984 52.8975293 11.94824219 52.32958984 C1.90083032 36.3054655 -1.02620191 18.67687479 0 0 Z " fill="#868686" transform="translate(23,231)"/>
<path d="M0 0 C5.15463597 1.36320951 10.07071492 3.35745587 15.01953125 5.32421875 C18.33901535 6.60684354 21.61866391 7.61901867 25.0625 8.5 C25.0625 9.16 25.0625 9.82 25.0625 10.5 C26.00609375 10.55607422 26.00609375 10.55607422 26.96875 10.61328125 C31.94519416 10.99550814 36.00138911 11.71649458 40.640625 13.671875 C44.67136848 15.05012922 48.86449501 15.7364486 53.04760742 16.49755859 C57.96870364 17.40620364 57.96870364 17.40620364 59.0625 18.5 C60.76813778 18.65740605 62.47977244 18.75093392 64.19140625 18.81640625 C65.74311523 18.87924805 65.74311523 18.87924805 67.32617188 18.94335938 C68.41478516 18.98267578 69.50339844 19.02199219 70.625 19.0625 C71.71748047 19.10568359 72.80996094 19.14886719 73.93554688 19.19335938 C76.64439564 19.29982068 79.35333992 19.40183516 82.0625 19.5 C82.0625 18.84 82.0625 18.18 82.0625 17.5 C84.47825607 16.99521515 86.89494361 16.49602358 89.3125 16 C89.99441406 15.85691406 90.67632812 15.71382812 91.37890625 15.56640625 C94.70883121 14.88748951 97.64582551 14.5 101.0625 14.5 C99.76068553 17.34982401 98.35708689 19.47668552 96.19921875 21.7421875 C95.64169922 22.33386719 95.08417969 22.92554688 94.50976562 23.53515625 C93.63868164 24.44587891 93.63868164 24.44587891 92.75 25.375 C84.87420166 32.77393805 84.87420166 32.77393805 80.4375 42.0625 C81.23618893 46.45528909 82.57601716 47.77144821 86.0625 50.5 C93.64729559 54.9244641 101.43895634 55.23199847 110.0625 54.5 C118.87054406 52.17766051 125.7099136 46.87129895 132.6875 41.25 C145.22137561 31.2875192 155.35676056 23.61498385 172.0625 25.5 C175.9463436 26.87109752 178.83531476 28.96992577 182.0625 31.5 C183.17378582 32.33295708 184.28581574 33.16492199 185.3984375 33.99609375 C192.05179807 39.04212043 198.30500287 44.43109595 204.4296875 50.109375 C207.87756983 53.24009308 211.48009145 56.15189338 215.1015625 59.078125 C222.84153332 65.40897184 230.3760395 71.99689098 237.8828125 78.6015625 C240.27407394 80.68427408 242.68420531 82.74385451 245.09619141 84.80249023 C249.98900772 88.981041 254.8716598 93.17020965 259.6875 97.4375 C260.44289063 98.10652344 261.19828125 98.77554688 261.9765625 99.46484375 C267.84881336 105.19413719 267.84881336 105.19413719 268.625 109.9375 C267.90137918 114.52043184 266.39371314 116.31362222 263.0625 119.5 C258.65033296 122.37750025 255.2813477 123.45678874 250.0625 122.5 C242.53236501 117.97353667 236.24264343 110.97622267 229.91235352 104.95019531 C225.6317685 100.89334139 221.28358815 97.12170631 216.46875 93.69921875 C215.77265625 93.10560547 215.77265625 93.10560547 215.0625 92.5 C215.0625 91.84 215.0625 91.18 215.0625 90.5 C213.7425 90.83 212.4225 91.16 211.0625 91.5 C211.93250055 96.22151543 214.87962682 98.67826982 218.21484375 101.91015625 C218.83017471 102.5188707 219.44550568 103.12758514 220.07948303 103.75474548 C222.04602125 105.69788718 224.02243089 107.63059113 226 109.5625 C227.97224775 111.49966207 229.94233741 113.43894969 231.9098053 115.38096619 C233.13420685 116.58842094 234.36167681 117.79277383 235.59251404 118.9936676 C241.83337077 125.1252246 241.83337077 125.1252246 242.6875 130.25 C242.63414242 133.1419807 242.27129367 134.24568733 240.4140625 136.5078125 C235.4571962 140.91186843 231.08596346 144.19233736 224.1796875 143.9140625 C216.49772673 142.41168641 210.44174025 134.02132604 205.24951172 128.61474609 C201.45716653 124.70627579 197.64210144 121.46524989 193.0625 118.5 C192.4025 118.5 191.7425 118.5 191.0625 118.5 C191.56949584 122.59821634 192.51119488 124.37640372 195.5625 127.125 C199.78233217 131.11714339 203.37464618 135.43975238 206.984375 139.984375 C208.99961165 142.51924834 208.99961165 142.51924834 211.28515625 144.6484375 C213.0625 146.5 213.0625 146.5 213.75 149.375 C212.73874787 153.97160058 209.82219152 155.88863055 206.0625 158.5 C202.21127545 160.42561228 198.22680974 160.34889582 194.0625 159.5 C190.57732702 157.19903166 187.95205185 154.29636421 185.1875 151.1875 C183.73351354 149.62728038 182.27784388 148.06862727 180.8203125 146.51171875 C180.1927002 145.81522217 179.56508789 145.11872559 178.91845703 144.40112305 C177.06434892 142.50189392 175.29887801 140.93080098 173.0625 139.5 C172.0725 139.5 171.0825 139.5 170.0625 139.5 C170.40957013 144.81513108 173.32955751 147.39176927 176.875 151 C184.95927164 159.40608221 184.95927164 159.40608221 187.0625 162.5 C186.0625 165.5 186.0625 165.5 184.29296875 166.66796875 C177.18105245 169.32092527 169.81699931 167.24095624 163.0625 164.5 C163.0625 163.84 163.0625 163.18 163.0625 162.5 C162.4025 162.5 161.7425 162.5 161.0625 162.5 C161.10890625 161.28183594 161.1553125 160.06367188 161.203125 158.80859375 C161.24066658 157.18492052 161.27706417 155.56122055 161.3125 153.9375 C161.36277344 152.73770508 161.36277344 152.73770508 161.4140625 151.51367188 C161.51030138 145.61904046 160.46080015 142.33981736 157.0625 137.5 C151.02529348 131.72528072 146.35867813 129.6851683 138.0625 128.5 C137.0725 121.57 137.0725 121.57 136.0625 114.5 C135.4025 114.5 134.7425 114.5 134.0625 114.5 C133.505625 113.38625 133.505625 113.38625 132.9375 112.25 C129.85832193 107.73387217 125.12741704 106.18830568 120.0625 104.5 C117.97826837 104.63237687 115.89499157 104.78010238 113.8125 104.9375 C107.72829903 105.02518804 107.72829903 105.02518804 104.8984375 102.79296875 C103.76460152 101.35625878 102.65961872 99.89626633 101.5859375 98.4140625 C99.1481527 95.35120468 96.86537075 95.00704943 93.0625 94.5 C87.29929865 94.20552986 81.72625148 94.27540509 76.0625 95.5 C76.0625 96.16 76.0625 96.82 76.0625 97.5 C74.25 97.25 74.25 97.25 72.0625 96.5 C71.381875 95.5409375 71.381875 95.5409375 70.6875 94.5625 C68.00843173 91.16214413 64.90471193 90.73143366 60.73046875 90.20703125 C54.85652084 89.87318168 51.48559176 90.8657003 46.8515625 94.50390625 C45.0625 95.5 45.0625 95.5 42.9609375 95.21484375 C41.0625 94.5 41.0625 94.5 39.0625 93.5 C39.0625 92.84 39.0625 92.18 39.0625 91.5 C38.35085693 91.39244385 37.63921387 91.2848877 36.90600586 91.17407227 C33.77140324 90.43099355 31.39978717 89.24118442 28.56640625 87.71484375 C22.21764392 84.46535511 15.79921037 82.17852138 9 80.0625 C7.79988281 79.68270996 6.59976563 79.30291992 5.36328125 78.91162109 C-5.28320296 75.59570802 -16.02932768 72.71919491 -26.84375 70.0078125 C-27.84277344 69.75676758 -28.84179688 69.50572266 -29.87109375 69.24707031 C-32.02425928 68.72249336 -34.18389035 68.22409515 -36.34765625 67.74511719 C-37.43949219 67.49665039 -38.53132813 67.24818359 -39.65625 66.9921875 C-40.64560547 66.77675293 -41.63496094 66.56131836 -42.65429688 66.33935547 C-43.40775391 66.06236816 -44.16121094 65.78538086 -44.9375 65.5 C-47.30185979 58.40692064 -42.17516376 47.81799164 -38.984375 41.3125 C-33.05725364 30.05342654 -14.14951093 -1.79676329 0 0 Z " fill="#FCFCFC" transform="translate(68.9375,157.5)"/>
<path d="M0 0 C1.45817021 0.52128985 2.91647379 1.04220703 4.375 1.5625 C7.00438804 2.60518836 9.23722212 3.65564464 11.6875 5 C16.32722911 7.4219386 21.24387251 8.33944108 26.33984375 9.38671875 C29 10 29 10 30 11 C35.00342022 11.90162853 39.91748104 12.15988532 44.98828125 12.16796875 C46.10314156 12.17296135 46.10314156 12.17296135 47.24052429 12.17805481 C48.80446764 12.18308831 50.3684216 12.18546425 51.93237305 12.18530273 C54.29559478 12.18748439 56.65834524 12.2056649 59.02148438 12.22460938 C66.87514257 12.2543879 74.36955992 12.06587134 82 10 C83.19367188 9.70480469 84.38734375 9.40960938 85.6171875 9.10546875 C92.38850561 7.19748343 98.84217608 4.98814145 105.28125 2.1484375 C108.14592677 0.93835852 111.03971307 -0.05096684 114 -1 C130.68524066 15.04159636 147.27009838 33.50430985 152 57 C152.01907038 58.99990908 152.02106589 61.00011095 152 63 C151.20529297 63.1858667 150.41058594 63.3717334 149.59179688 63.56323242 C129.28206779 68.25152467 129.28206779 68.25152467 109.32470703 74.22216797 C106.38933206 75.20432557 103.44256128 76.14930523 100.49609375 77.09765625 C84.59635657 82.14013461 84.59635657 82.14013461 69.48046875 89.1015625 C66.08834393 90.33020614 64.43344439 90.14016266 61 89 C58.48111537 87.18082614 56.32260621 85.06505948 54.125 82.875 C52.87827094 81.67508808 51.63088103 80.47586239 50.3828125 79.27734375 C49.79274414 78.7035498 49.20267578 78.12975586 48.59472656 77.53857422 C45.50943181 74.5619166 42.25593523 71.78661124 39 69 C37.95430999 68.1003965 36.90874931 67.20064267 35.86328125 66.30078125 C29.56937858 60.88975366 23.25205257 55.50713228 16.90673828 50.15649414 C14.04246536 47.73853921 11.1911331 45.30694148 8.35546875 42.85546875 C2.37795017 37.6885956 -3.57159703 32.6031957 -10 28 C-11.10477526 27.17659719 -12.20887667 26.35228988 -13.3125 25.52734375 C-14.54123283 24.62180687 -15.77040314 23.7168633 -17 22.8125 C-17.56976563 22.38372559 -18.13953125 21.95495117 -18.7265625 21.51318359 C-27.79062004 14.92466916 -36.95811432 13.69455539 -48 15 C-52.16059388 16.4028056 -55.4484036 18.44285059 -59 21 C-59.96292969 21.68835938 -60.92585938 22.37671875 -61.91796875 23.0859375 C-64.98254564 25.34571606 -67.99550743 27.66103524 -71 30 C-83.31640405 39.54712562 -92.04114757 45.18653178 -108 44 C-110.41722728 43.25623776 -111.90188146 42.43870986 -114 41 C-113.69849973 35.58304512 -110.60809824 33.18129707 -106.875 29.6875 C-105.67515922 28.53063811 -104.4772255 27.3717949 -103.28125 26.2109375 C-102.70761719 25.65631836 -102.13398438 25.10169922 -101.54296875 24.53027344 C-99.70849206 22.71089054 -98.02783174 20.79751852 -96.375 18.8125 C-87.5218809 8.47659248 -76.72745882 -1.04616829 -63.2890625 -4.39453125 C-60.93457475 -4.96005172 -60.93457475 -4.96005172 -58.546875 -6.03515625 C-40.27605694 -12.95676984 -17.28466648 -6.66475762 0 0 Z " fill="#FDFDFD" transform="translate(272,161)"/>
<path d="M0 0 C3.83935483 0.01068106 7.67823784 0.00007629 11.51757812 -0.01269531 C29.79287574 -0.02449796 47.69348556 0.57292197 65.54882812 4.76074219 C66.51369141 4.9734375 67.47855469 5.18613281 68.47265625 5.40527344 C72.87649506 6.39880385 76.92812766 7.54896312 81.11132812 9.26074219 C82.9991025 9.77073498 84.89579359 10.24852642 86.79882812 10.69824219 C94.71368074 12.63815704 102.28142561 14.72709049 109.68945312 18.15527344 C112.5128059 19.44399737 115.36901371 20.63566047 118.23632812 21.82324219 C122.54111414 23.60681082 126.83351569 25.413505 131.11132812 27.26074219 C131.11132812 27.92074219 131.11132812 28.58074219 131.11132812 29.26074219 C131.69019775 29.38223633 132.26906738 29.50373047 132.86547852 29.62890625 C136.77102457 30.72767277 140.07475425 32.9577455 143.54882812 35.01074219 C144.29970703 35.44128906 145.05058594 35.87183594 145.82421875 36.31542969 C150.20643018 38.89002708 153.69876379 41.48860348 157.11132812 45.26074219 C130.70030409 57.3332369 100.48687602 60.03724379 72.27539062 52.19433594 C67.92973914 50.56874038 63.82309848 48.61259239 59.66601562 46.55761719 C58.44052931 45.95646003 57.21394247 45.3575417 55.98632812 44.76074219 C55.07089233 44.31529053 55.07089233 44.31529053 54.13696289 43.86083984 C34.15284323 34.53098934 7.22092655 31.07497221 -13.88867188 38.26074219 C-23.89753697 42.47615102 -23.89753697 42.47615102 -32.48144531 48.89550781 C-33.88867188 50.26074219 -33.88867188 50.26074219 -35.88867188 50.26074219 C-35.88867188 50.92074219 -35.88867188 51.58074219 -35.88867188 52.26074219 C-36.44627197 52.33067383 -37.00387207 52.40060547 -37.57836914 52.47265625 C-51.23338021 54.19183912 -51.23338021 54.19183912 -64.57617188 57.44824219 C-79.06148675 61.53951433 -92.68457815 59.2393661 -106.88867188 55.26074219 C-108.53802734 54.83341797 -108.53802734 54.83341797 -110.22070312 54.39746094 C-114.58751266 53.25753074 -118.70093933 51.94372419 -122.88867188 50.26074219 C-124.40349788 49.78292879 -125.92467278 49.32483668 -127.45117188 48.88574219 C-133.31464661 47.16119079 -139.10014233 45.22008982 -144.88867188 43.26074219 C-143.76296031 39.88360749 -143.38797403 39.66984136 -140.45898438 37.99121094 C-139.75112793 37.58008057 -139.04327148 37.1689502 -138.31396484 36.74536133 C-137.55486816 36.31731201 -136.79577148 35.8892627 -136.01367188 35.44824219 C-135.24297363 35.00536865 -134.47227539 34.56249512 -133.67822266 34.10620117 C-131.42084252 32.81380976 -129.15626905 31.53510286 -126.88867188 30.26074219 C-125.79039063 29.63941406 -124.69210938 29.01808594 -123.56054688 28.37792969 C-118.75845043 25.70860792 -113.95983164 23.38770674 -108.88867188 21.26074219 C-108.2828125 21.00204346 -107.67695312 20.74334473 -107.05273438 20.47680664 C-105.1904363 19.68419801 -103.32166 18.90879959 -101.45117188 18.13574219 C-100.83435547 17.87148437 -100.21753906 17.60722656 -99.58203125 17.33496094 C-95.00225521 15.45730042 -90.82006407 14.7085541 -85.88867188 14.26074219 C-85.88867188 13.60074219 -85.88867188 12.94074219 -85.88867188 12.26074219 C-84.88707031 11.99519531 -83.88546875 11.72964844 -82.85351562 11.45605469 C-81.51105867 11.09931787 -80.16861126 10.74254512 -78.82617188 10.38574219 C-78.16939453 10.21171875 -77.51261719 10.03769531 -76.8359375 9.85839844 C-73.6486633 9.0105521 -70.48201287 8.13869994 -67.32226562 7.19042969 C-63.87603452 6.25732047 -60.55318513 5.71020419 -57.01367188 5.26074219 C-53.12791518 4.73828751 -49.32092358 4.19791184 -45.51367188 3.26074219 C-30.47806538 -0.18318785 -15.34373847 -0.05070376 0 0 Z " fill="#868686" transform="translate(219.888671875,109.7392578125)"/>
<path d="M0 0 C7.12265847 4.14737075 11.25634497 9.06301859 13.69450378 16.996521 C14.27632966 19.82197134 14.3110046 22.48246557 14.3371582 25.36816406 C14.35641106 27.22093964 14.35641106 27.22093964 14.37605286 29.11114502 C14.38422201 30.45690507 14.3916654 31.80266969 14.3984375 33.1484375 C14.40251303 33.82983543 14.40658855 34.51123337 14.41078758 35.21327972 C14.43161246 38.82105705 14.44592874 42.42879676 14.45532227 46.03662109 C14.46637054 49.74650907 14.50076147 53.4557946 14.54049397 57.16547012 C14.56674786 60.03268482 14.57502186 62.89975791 14.57860374 65.76708221 C14.58344827 67.13372611 14.59500096 68.5003646 14.61364174 69.86688995 C14.72474219 78.55226859 14.57153273 85.19584323 8.64204407 91.99981689 C0.92372806 99.85411361 -9.61196701 100.62763114 -20.02734375 100.7578125 C-20.95361572 100.77634277 -21.8798877 100.79487305 -22.83422852 100.81396484 C-31.60019073 100.73418184 -38.7689897 97.98661936 -45.265625 92.03515625 C-49.18062433 87.61499572 -51.83984375 83.19626932 -51.83984375 77.2578125 C-44.90984375 77.2578125 -37.97984375 77.2578125 -30.83984375 77.2578125 C-30.17984375 78.9078125 -29.51984375 80.5578125 -28.83984375 82.2578125 C-25.42550597 83.4563386 -21.94049019 83.42002706 -18.33984375 83.4453125 C-17.42203125 83.45949219 -16.50421875 83.47367187 -15.55859375 83.48828125 C-12.51952117 83.23065872 -10.49544494 82.77205085 -7.83984375 81.2578125 C-5.87322563 77.76495395 -5.50098407 74.40358695 -5.21484375 70.4453125 C-5.14007812 69.46949219 -5.0653125 68.49367188 -4.98828125 67.48828125 C-4.93929687 66.75222656 -4.8903125 66.01617187 -4.83984375 65.2578125 C-5.36191406 65.66773438 -5.88398437 66.07765625 -6.421875 66.5 C-14.25704365 72.23572767 -21.38677897 73.94591473 -31.02734375 72.6953125 C-38.53745965 71.14082538 -43.55902795 68.39460424 -48.15234375 62.1953125 C-55.34560677 50.18040724 -55.81370429 33.85042851 -53.18359375 20.296875 C-50.89487581 11.83256468 -46.83813424 5.48285096 -39.27734375 0.8828125 C-27.81989937 -4.53343393 -11.72871317 -5.3160253 0 0 Z M-30.83984375 18.2578125 C-35.42431633 26.32016084 -35.43918561 34.89315453 -33.5703125 43.7734375 C-32.3089822 48.06330954 -30.14572171 50.95193454 -27.02734375 54.0703125 C-23.87964438 55.77906359 -21.41944734 56.13647001 -17.83984375 56.2578125 C-12.65356507 54.67555799 -9.72975618 52.86026563 -6.83984375 48.2578125 C-3.11752418 39.63770401 -3.08185711 30.17489039 -5.83984375 21.2578125 C-7.9340102 17.84531286 -10.22995456 15.0627571 -13.83984375 13.2578125 C-21.1893147 12.41718674 -25.91902852 12.47585461 -30.83984375 18.2578125 Z " fill="#FFFFFF" transform="translate(665.83984375,254.7421875)"/>
<path d="M0 0 C2.68460836 1.5880589 2.68460836 1.5880589 5.25 1.015625 C5.97960937 0.71140625 6.70921875 0.4071875 7.4609375 0.09375 C17.66119373 -3.98635249 30.55401834 -4.49062329 41.0859375 -1.15625 C47.5451297 1.68218384 51.76341358 6.63859148 54.7109375 12.96875 C57.00865852 19.86191305 56.96925094 26.4576514 56.93359375 33.6484375 C56.9321788 34.72755402 56.93076385 35.80667053 56.92930603 36.91848755 C56.92372594 40.35193702 56.91117705 43.78532036 56.8984375 47.21875 C56.89341993 49.55208239 56.88885747 51.8854158 56.88476562 54.21875 C56.87376303 59.92710575 56.85704471 65.63542315 56.8359375 71.34375 C54.77410117 71.42525744 52.71132401 71.4831694 50.6484375 71.53125 C48.92560547 71.58345703 48.92560547 71.58345703 47.16796875 71.63671875 C43.25681303 71.2928305 40.6299524 70.1377649 37.8359375 67.34375 C37.70009758 64.32470296 37.62520966 61.32541045 37.58984375 58.3046875 C37.55688277 56.42577699 37.52367153 54.54687085 37.49023438 52.66796875 C37.44296546 49.69908919 37.39859 46.73022444 37.35913086 43.76123047 C37.31920615 40.90051771 37.26768606 38.04018683 37.21484375 35.1796875 C37.2064296 34.30025482 37.19801544 33.42082214 37.18934631 32.51473999 C37.08821575 23.82112698 37.08821575 23.82112698 33.05078125 16.4375 C28.82146011 14.34894635 24.41614603 14.61770213 19.8359375 15.34375 C16.63312432 17.58571923 15.19490342 18.92884951 14.23158264 22.72587585 C13.85805784 25.19738585 13.67985603 27.54502449 13.63061523 30.04223633 C13.61067001 30.94279251 13.59072479 31.84334869 13.57017517 32.77119446 C13.54510643 34.20896492 13.54510643 34.20896492 13.51953125 35.67578125 C13.49875015 36.66752853 13.47796906 37.65927582 13.45655823 38.68107605 C13.39133698 41.83939899 13.33230548 44.99780288 13.2734375 48.15625 C13.23022619 50.30144056 13.18661107 52.44662302 13.14257812 54.59179688 C13.03568373 59.8423656 12.93433933 65.09301552 12.8359375 70.34375 C6.8959375 70.34375 0.9559375 70.34375 -5.1640625 70.34375 C-5.17864502 68.98693115 -5.19322754 67.6301123 -5.20825195 66.23217773 C-5.2663944 61.17950603 -5.34362669 56.12727254 -5.42651367 51.07495117 C-5.45968802 48.8917555 -5.4877431 46.70847561 -5.51049805 44.52514648 C-5.54418154 41.37968183 -5.59650526 38.23498376 -5.65234375 35.08984375 C-5.65873367 34.1197789 -5.6651236 33.14971405 -5.67170715 32.1502533 C-5.79355501 26.48434334 -6.37317642 22.32256564 -9.1640625 17.34375 C-13.00638678 14.78220048 -15.93349364 13.98292268 -20.5546875 14.73046875 C-22.77281014 15.22222235 -24.97017213 15.75383726 -27.1640625 16.34375 C-29.03286147 22.71733808 -29.49883729 28.5643842 -29.578125 35.1875 C-29.59749115 36.19719849 -29.6168573 37.20689697 -29.6368103 38.24719238 C-29.69619477 41.44596121 -29.74282607 44.64476684 -29.7890625 47.84375 C-29.82728017 50.02345248 -29.86633406 52.20314046 -29.90625 54.3828125 C-30.00186224 59.70300616 -30.08604402 65.02327043 -30.1640625 70.34375 C-36.4340625 70.34375 -42.7040625 70.34375 -49.1640625 70.34375 C-49.21372448 63.67261829 -49.24990593 57.00159568 -49.27392578 50.33032227 C-49.28394578 48.06370162 -49.29756547 45.79709377 -49.31494141 43.53051758 C-49.33936612 40.2611982 -49.35058593 36.99205064 -49.359375 33.72265625 C-49.36969757 32.71916641 -49.38002014 31.71567657 -49.39065552 30.68177795 C-49.39216434 21.09005976 -48.22084257 13.01119735 -42.1640625 5.34375 C-36.14448377 -0.67582873 -29.45158604 -3.02432961 -21.08203125 -3.66015625 C-14.08482443 -3.65078917 -6.24843265 -3.2707845 0 0 Z " fill="#FFFFFF" transform="translate(520.1640625,155.65625)"/>
<path d="M0 0 C13 0 13 0 16.27404785 2.08905029 C18.32384085 5.54618225 18.62238186 7.56734625 18.61523438 11.57519531 C18.6291925 13.54314056 18.6291925 13.54314056 18.64343262 15.55084229 C18.62783881 16.97661409 18.6112531 18.40237535 18.59375 19.828125 C18.59203711 21.30157371 18.59210639 22.77502547 18.59387207 24.24847412 C18.59222026 27.33538013 18.57355792 30.42155872 18.54199219 33.50830078 C18.50245387 37.44337717 18.49793158 41.37749553 18.50545502 45.3127327 C18.50854294 48.35677694 18.49633772 51.40061038 18.47932434 54.44460297 C18.47234469 55.89409815 18.46916362 57.34361723 18.47001648 58.79312897 C18.4600949 69.89574092 17.83693882 78.91869812 9.96484375 87.2734375 C0.7940668 95.33205263 -11.12066593 94.61439453 -22.62304688 94.18359375 C-30.24114396 93.59517869 -36.8207686 90.5491765 -42 85 C-48.10431783 75.94583026 -49.345702 67.91174473 -49.3125 57.1875 C-49.32861328 56.15818359 -49.34472656 55.12886719 -49.36132812 54.06835938 C-49.36813276 43.31022507 -47.00678723 34.33654247 -40 26 C-31.72158307 19.27378624 -22.17896666 18.97285907 -12 20 C-7.31525677 21.75256581 -4.50132987 24.49867013 -1 28 C-0.67 18.76 -0.34 9.52 0 0 Z M-27 43 C-31.09980111 50.45418384 -30.94398512 60.06482787 -28.6953125 68.109375 C-27.33289067 71.81393772 -25.5516376 75.04815509 -22.140625 77.140625 C-18.44191032 78.62551045 -14.91361562 78.53089047 -11 78 C-6.52006207 75.97134886 -3.73700355 73.2784493 -1.69140625 68.7421875 C-0.73807556 64.96118102 -0.60180582 61.32584927 -0.5625 57.4375 C-0.54727295 56.35722534 -0.54727295 56.35722534 -0.53173828 55.25512695 C-0.63744409 48.74826453 -2.20190118 44.06123523 -6.5625 39.0625 C-10.00346268 36.4946174 -13.31594126 36.22934314 -17.52734375 36.4453125 C-21.74455641 37.39135389 -24.31858546 39.69919438 -27 43 Z " fill="#FFFFFF" transform="translate(896,133)"/>
<path d="M0 0 C2 2 2 2 2 5 C2.66 5 3.32 5 4 5 C4 6.65 4 8.3 4 10 C4.66 10 5.32 10 6 10 C6.09667969 9.39671875 6.19335938 8.7934375 6.29296875 8.171875 C7.39885483 4.77478847 9.48065186 3.73412063 12.48046875 1.98828125 C17.67703801 -0.05006297 23.79900277 -0.26808736 29.03125 1.8046875 C31.74214665 3.51893097 33.21931348 5.32897023 35 8 C35.39013716 9.9896995 35.73202649 11.99019869 36 14 C38.49361571 12.79618552 40.68143083 11.54571278 43 10 C49.80234907 9.19294164 53.66205235 10.79828955 59 15 C62.3462241 17.97006776 62.94262298 20.1536889 63.25 24.6875 C63.21589814 29.2827259 61.79870849 32.80301353 60 37 C60.804375 36.835 61.60875 36.67 62.4375 36.5 C69.25932818 35.54255043 75.06739006 34.95503867 81 39 C85.13798557 43.20526989 87.15906972 46.33889639 87.3125 52.25 C87.23920826 57.34710725 86.67704532 60.23102855 83 64 C77.77253926 67.68929198 73.31461699 68.70162411 67 68 C61.71245633 66.47647047 58.87016851 64.43355419 55.93359375 59.91796875 C54.48054802 56.93284134 54.20207468 54.30055315 54 51 C51.83864739 51.46314699 50.09536087 51.94582691 48.1640625 53.04296875 C44.1680293 54.81016755 40.15112838 53.98867569 36 53 C33.05624515 51.66029116 32.18731686 50.62478023 30 48 C28.97565164 45.03137877 28.39318338 42.11157191 28 39 C25.83125748 39.50603992 24.00032373 39.99983813 22 41 C15.6542279 41.36610224 11.14496393 40.85246885 6.25 36.625 C2.65076483 32.4258923 1.74291766 29.7974583 1.875 24.25 C1.89304688 23.26515625 1.91109375 22.2803125 1.9296875 21.265625 C1.95289063 20.51796875 1.97609375 19.7703125 2 19 C1.236875 19.495 0.47375 19.99 -0.3125 20.5 C-5.28524212 22.52281035 -9.7105907 23.13008151 -15 22 C-18.25184752 19.57060419 -20.20265355 16.5946929 -22 13 C-22.51484984 8.62377632 -22.23735346 5.82097947 -19.8125 2.1875 C-14.32476549 -4.68758312 -7.18160212 -4.24367398 0 0 Z " fill="#FBFBFB" transform="translate(138,257)"/>
<path d="M0 0 C8.09289051 5.03520703 11.09587703 11.10828249 14.21484375 19.87109375 C15.22895605 26.23234362 14.90234375 32.74201602 14.90234375 39.18359375 C-0.27765625 39.18359375 -15.45765625 39.18359375 -31.09765625 39.18359375 C-29.74852878 47.51206594 -29.74852878 47.51206594 -25.09765625 53.18359375 C-20.87299679 55.22081842 -17.35732921 55.58862301 -12.91015625 54.05859375 C-10.35788643 53.01619302 -8.94626359 52.03604076 -6.94140625 50.08203125 C-2.8922657 47.37889621 0.46739473 47.73874975 5.21484375 47.93359375 C6.05080078 47.95164062 6.88675781 47.9696875 7.74804688 47.98828125 C9.79997603 48.03518249 11.85131131 48.10691964 13.90234375 48.18359375 C12.31250979 56.77235191 8.56037153 62.53717329 1.90234375 68.18359375 C-7.2389817 73.76259914 -17.97830915 73.97555801 -28.23828125 71.96875 C-35.83324894 69.88324658 -41.86501542 65.8809736 -46.09765625 59.18359375 C-50.21346567 50.75409945 -51.29533359 43.27682538 -51.34765625 33.99609375 C-51.36828125 33.10083984 -51.38890625 32.20558594 -51.41015625 31.28320312 C-51.46906991 21.08377501 -48.92533883 11.94720586 -42.09765625 4.18359375 C-31.28579784 -4.66443409 -12.49811397 -6.34789971 0 0 Z M-26.09765625 15.18359375 C-29.95487633 19.04081383 -30.14103552 20.44386939 -31.09765625 26.18359375 C-22.51765625 26.18359375 -13.93765625 26.18359375 -5.09765625 26.18359375 C-7.31454785 17.66945309 -7.31454785 17.66945309 -13.09765625 13.18359375 C-18.47217991 11.71781457 -21.45984608 12.0917203 -26.09765625 15.18359375 Z " fill="#FFFFFF" transform="translate(591.09765625,254.81640625)"/>
<path d="M0 0 C8.09289051 5.03520703 11.09587703 11.10828249 14.21484375 19.87109375 C15.22895605 26.23234362 14.90234375 32.74201602 14.90234375 39.18359375 C-0.27765625 39.18359375 -15.45765625 39.18359375 -31.09765625 39.18359375 C-29.74852878 47.51206594 -29.74852878 47.51206594 -25.09765625 53.18359375 C-20.87299679 55.22081842 -17.35732921 55.58862301 -12.91015625 54.05859375 C-10.35788643 53.01619302 -8.94626359 52.03604076 -6.94140625 50.08203125 C-2.8922657 47.37889621 0.46739473 47.73874975 5.21484375 47.93359375 C6.05080078 47.95164063 6.88675781 47.9696875 7.74804688 47.98828125 C9.79997603 48.03518249 11.85131131 48.10691964 13.90234375 48.18359375 C12.31250979 56.77235191 8.56037153 62.53717329 1.90234375 68.18359375 C-7.2389817 73.76259914 -17.97830915 73.97555801 -28.23828125 71.96875 C-35.83324894 69.88324658 -41.86501542 65.8809736 -46.09765625 59.18359375 C-50.21346567 50.75409945 -51.29533359 43.27682538 -51.34765625 33.99609375 C-51.36828125 33.10083984 -51.38890625 32.20558594 -51.41015625 31.28320312 C-51.46906991 21.08377501 -48.92533883 11.94720586 -42.09765625 4.18359375 C-31.28579784 -4.66443409 -12.49811397 -6.34789971 0 0 Z M-26.09765625 15.18359375 C-29.95487633 19.04081383 -30.14103552 20.44386939 -31.09765625 26.18359375 C-22.51765625 26.18359375 -13.93765625 26.18359375 -5.09765625 26.18359375 C-7.31454785 17.66945309 -7.31454785 17.66945309 -13.09765625 13.18359375 C-18.47217991 11.71781457 -21.45984608 12.0917203 -26.09765625 15.18359375 Z " fill="#FFFFFF" transform="translate(636.09765625,155.81640625)"/>
<path d="M0 0 C7.89017385 7.71483665 10.13513972 17.05991945 10.28320312 27.70117188 C10.29287109 28.81041016 10.30253906 29.91964844 10.3125 31.0625 C10.35600586 32.68575195 10.35600586 32.68575195 10.40039062 34.34179688 C10.47848434 44.35581364 8.22976623 53.43533187 1.734375 61.28125 C-5.3825294 68.33403815 -14.27297613 69.61564951 -24 70 C-33.70744913 69.48014753 -41.83101352 67.53576262 -48.75 60.5 C-58.12924494 48.6310699 -57.14953864 33.3906139 -56 19 C-54.89096517 10.86889899 -51.24432638 4.31924099 -45 -1 C-32.83451916 -9.94993524 -11.72141982 -9.19327044 0 0 Z M-32 13 C-38.24804484 20.48703391 -37.48558903 29.8637324 -37 39 C-36.20171949 43.60026057 -34.47785467 46.45388037 -31.375 50 C-27.04875912 52.5636983 -23.90890928 52.82571302 -19 52 C-14.70264619 50.22500603 -13.10355256 48.06535629 -11 44 C-8.49705881 34.11032995 -8.21180569 24.78292153 -12.6875 15.5 C-15.64070499 12.30734595 -17.8922884 11.3692372 -22 10 C-25.62958715 10 -28.86357912 11.21751922 -32 13 Z " fill="#FFFFFF" transform="translate(792,258)"/>
<path d="M0 0 C7.89017385 7.71483665 10.13513972 17.05991945 10.28320312 27.70117188 C10.29287109 28.81041016 10.30253906 29.91964844 10.3125 31.0625 C10.35600586 32.68575195 10.35600586 32.68575195 10.40039062 34.34179688 C10.47848434 44.35581364 8.22976623 53.43533187 1.734375 61.28125 C-5.3825294 68.33403815 -14.27297613 69.61564951 -24 70 C-33.70744913 69.48014753 -41.83101352 67.53576262 -48.75 60.5 C-58.12924494 48.6310699 -57.14953864 33.3906139 -56 19 C-54.89096517 10.86889899 -51.24432638 4.31924099 -45 -1 C-32.83451916 -9.94993524 -11.72141982 -9.19327044 0 0 Z M-32 13 C-38.24804484 20.48703391 -37.48558903 29.8637324 -37 39 C-36.20171949 43.60026057 -34.47785467 46.45388037 -31.375 50 C-27.04875912 52.5636983 -23.90890928 52.82571302 -19 52 C-14.70264619 50.22500603 -13.10355256 48.06535629 -11 44 C-8.49705881 34.11032995 -8.21180569 24.78292153 -12.6875 15.5 C-15.64070499 12.30734595 -17.8922884 11.3692372 -22 10 C-25.62958715 10 -28.86357912 11.21751922 -32 13 Z " fill="#FFFFFF" transform="translate(978,159)"/>
<path d="M0 0 C4.02621782 2.66611352 6.88465569 6.04665512 9.03515625 10.34765625 C9.32222584 16.0512567 9.34914465 21.75616721 9.38525391 27.46630859 C9.40173276 29.37300898 9.42891476 31.27964967 9.46728516 33.18603516 C9.90143911 54.88240685 9.90143911 54.88240685 2.11987305 63.45849609 C-2.29210734 67.85110252 -6.96213143 69.94666415 -12.96484375 71.34765625 C-14.11146484 71.62222656 -14.11146484 71.62222656 -15.28125 71.90234375 C-25.84977745 73.6560732 -36.23325707 73.13266632 -45.27734375 67.16015625 C-50.61568004 61.57352525 -52.21502667 57.13362185 -52.46484375 49.34765625 C-52.23850519 42.05799357 -50.83485192 37.38648843 -45.83984375 32.09765625 C-38.27796704 27.49477477 -30.59827685 25.70321854 -21.94238281 24.38647461 C-18.04732018 23.78464889 -14.50091661 23.13253112 -10.96484375 21.34765625 C-9.80718525 19.46808381 -9.80718525 19.46808381 -9.96484375 17.34765625 C-11.34774615 15.38247916 -12.48409015 14.53652374 -14.71484375 13.66015625 C-19.89300774 12.94096681 -24.25649914 12.92622188 -28.96484375 15.34765625 C-29.62484375 16.00765625 -30.28484375 16.66765625 -30.96484375 17.34765625 C-32.93603516 17.57470703 -32.93603516 17.57470703 -35.31640625 17.54296875 C-36.1671875 17.53652344 -37.01796875 17.53007812 -37.89453125 17.5234375 C-39.22871094 17.49830078 -39.22871094 17.49830078 -40.58984375 17.47265625 C-41.935625 17.45912109 -41.935625 17.45912109 -43.30859375 17.4453125 C-45.52760961 17.42170595 -47.74609452 17.38877935 -49.96484375 17.34765625 C-49.68423869 15.91498423 -49.39311723 14.48436968 -49.09765625 13.0546875 C-48.93668457 12.25780518 -48.77571289 11.46092285 -48.60986328 10.63989258 C-47.3807051 6.27177519 -44.79865121 3.46513267 -40.96484375 1.12890625 C-29.54391412 -4.74951341 -11.78551765 -5.34660069 0 0 Z M-19.27734375 37.59765625 C-20.03724609 37.80261719 -20.79714844 38.00757813 -21.58007812 38.21875 C-26.12353263 39.52139117 -29.603829 40.8485176 -32.96484375 44.34765625 C-33.88482337 47.11841841 -33.66953866 49.52887663 -32.96484375 52.34765625 C-31.0928893 55.04554483 -31.0928893 55.04554483 -27.96484375 56.34765625 C-22.34798106 56.9717521 -18.79224195 56.52935052 -13.96484375 53.34765625 C-9.98240703 49.04231925 -8.82707211 45.95607222 -8.90234375 40.16015625 C-8.91136719 39.25910156 -8.92039062 38.35804688 -8.9296875 37.4296875 C-8.94128906 36.74261719 -8.95289063 36.05554688 -8.96484375 35.34765625 C-12.51366781 35.34765625 -15.88553965 36.62856936 -19.27734375 37.59765625 Z " fill="#FFFFFF" transform="translate(830.96484375,155.65234375)"/>
<path d="M0 0 C5.78267498 5.78267498 8.1244842 11.73054822 8.34057617 19.7734375 C8.34010598 21.9740155 8.32344241 24.17463296 8.29296875 26.375 C8.28872391 27.5400708 8.28447906 28.7051416 8.28010559 29.90551758 C8.2633965 33.60391965 8.22575761 37.30176434 8.1875 41 C8.17244317 43.51691918 8.15875652 46.03384695 8.14648438 48.55078125 C8.11351839 54.700709 8.06339635 60.85031467 8 67 C5.75106046 67.10823773 3.50062425 67.18569645 1.25 67.25 C-0.00296875 67.29640625 -1.2559375 67.3428125 -2.546875 67.390625 C-6 67 -6 67 -8.42163086 65.56762695 C-10.80670278 61.68768862 -10.54566533 58.13906841 -10.50390625 53.66796875 C-10.51332748 52.75799637 -10.52274872 51.84802399 -10.53245544 50.91047668 C-10.56111816 48.00258906 -10.56418413 45.09551746 -10.5625 42.1875 C-10.56611516 39.29031292 -10.57575309 36.39372197 -10.60325623 33.49665833 C-10.61995446 31.69586143 -10.6229916 29.89486911 -10.61024475 28.09403992 C-10.65553766 22.64951402 -11.35298331 18.79817885 -14 14 C-17.84232428 11.43845048 -20.76943114 10.63917268 -25.390625 11.38671875 C-27.60874764 11.87847235 -29.80610963 12.41008726 -32 13 C-33.86879897 19.37358808 -34.33477479 25.2206342 -34.4140625 31.84375 C-34.43342865 32.85344849 -34.4527948 33.86314697 -34.4727478 34.90344238 C-34.53213227 38.10221121 -34.57876357 41.30101684 -34.625 44.5 C-34.66321767 46.67970248 -34.70227156 48.85939046 -34.7421875 51.0390625 C-34.83779974 56.35925616 -34.92198152 61.67952043 -35 67 C-41.27 67 -47.54 67 -54 67 C-54.04966198 60.32886829 -54.08584343 53.65784568 -54.10986328 46.98657227 C-54.11988328 44.71995162 -54.13350297 42.45334377 -54.15087891 40.18676758 C-54.17530362 36.9174482 -54.18652343 33.64830064 -54.1953125 30.37890625 C-54.20563507 29.37541641 -54.21595764 28.37192657 -54.22659302 27.33802795 C-54.22810184 17.74630976 -53.05678007 9.66744735 -47 2 C-35.57034673 -9.42965327 -12.2741374 -10.9949469 0 0 Z " fill="#FFFFFF" transform="translate(525,258)"/>
<path d="M0 0 C5.14928259 5.49405097 8 10.37366999 8 18 C1.07 18 -5.86 18 -13 18 C-13.66 16.68 -14.32 15.36 -15 14 C-18.57897251 11.61401833 -20.71590055 11.21420497 -25 11 C-28.60790095 11.85611209 -30.92575318 12.69826561 -33.328125 15.609375 C-37.94405358 23.99606214 -37.23958911 36.27894275 -35.0625 45.375 C-34.0471975 47.84141881 -33.31269397 48.79344402 -31.078125 50.26953125 C-26.54108543 52.10781453 -22.71930798 52.2599498 -18.01953125 51.03125 C-15.72256763 49.98306038 -15.72256763 49.98306038 -13.34765625 47.42578125 C-9.43069434 44.04627295 -5.58019696 44.43065167 -0.625 44.6875 C0.62216797 44.72133789 0.62216797 44.72133789 1.89453125 44.75585938 C3.93047353 44.81436346 5.96547945 44.90403205 8 45 C7.10824181 52.88352184 4.5111841 57.92859067 -1.3125 63.3125 C-8.57981165 69.07622993 -17.1550616 70.45015169 -26.24609375 69.75 C-36.59820044 68.40961162 -43.51658207 65.84882389 -50.234375 57.63671875 C-58.11985515 45.86083578 -57.88164207 28.86276432 -55.3046875 15.35546875 C-54.41784555 12.69121668 -53.40801108 10.42441908 -52 8 C-51.5875 7.25878906 -51.175 6.51757812 -50.75 5.75390625 C-46.43496264 -0.92704647 -40.48660217 -3.79627747 -32.95703125 -5.81640625 C-21.81468933 -7.97430194 -9.12895693 -7.46062599 0 0 Z " fill="#FFFFFF" transform="translate(763,159)"/>
<path d="M0 0 C0 6.27 0 12.54 0 19 C-3.48307292 19.35807292 -6.96614583 19.71614583 -10.44921875 20.07421875 C-14.82580291 21.21530835 -16.34333973 22.34769048 -19 26 C-20.91583988 31.86944468 -21.32125183 37.8431467 -21.4140625 43.97265625 C-21.43342865 44.78117538 -21.4527948 45.58969452 -21.4727478 46.42271423 C-21.5318499 48.96920697 -21.57864711 51.51574664 -21.625 54.0625 C-21.66324387 55.80405463 -21.70229917 57.54559164 -21.7421875 59.28710938 C-21.83899925 63.52464045 -21.91911432 67.76201632 -22 72 C-28.27 72 -34.54 72 -41 72 C-41.06938911 66.25612368 -41.12896383 60.51373906 -41.16479492 54.76977539 C-41.17975333 52.82148269 -41.20012747 50.8732229 -41.22631836 48.92504883 C-41.61879668 18.95047932 -41.61879668 18.95047932 -32 9 C-22.95759222 -0.25269633 -12.16900265 -0.4465689 0 0 Z " fill="#FFFFFF" transform="translate(729,253)"/>
<path d="M0 0 C0 6.27 0 12.54 0 19 C-3.48307292 19.35807292 -6.96614583 19.71614583 -10.44921875 20.07421875 C-14.82580291 21.21530835 -16.34333973 22.34769048 -19 26 C-20.91583988 31.86944468 -21.32125183 37.8431467 -21.4140625 43.97265625 C-21.43342865 44.78117538 -21.4527948 45.58969452 -21.4727478 46.42271423 C-21.5318499 48.96920697 -21.57864711 51.51574664 -21.625 54.0625 C-21.66324387 55.80405463 -21.70229917 57.54559164 -21.7421875 59.28710938 C-21.83899925 63.52464045 -21.91911432 67.76201632 -22 72 C-28.27 72 -34.54 72 -41 72 C-41.06938911 66.25612368 -41.12896383 60.51373906 -41.16479492 54.76977539 C-41.17975333 52.82148269 -41.20012747 50.8732229 -41.22631836 48.92504883 C-41.61879668 18.95047932 -41.61879668 18.95047932 -32 9 C-22.95759222 -0.25269633 -12.16900265 -0.4465689 0 0 Z " fill="#FFFFFF" transform="translate(700,154)"/>
<path d="M0 0 C4.87569344 0.105687 8.07863903 0.89315088 12.3125 3.3125 C14.0625 5.4375 14.0625 5.4375 15.3125 7.3125 C16.3025 7.6425 17.2925 7.9725 18.3125 8.3125 C18.3125 7.6525 18.3125 6.9925 18.3125 6.3125 C25.0536923 3.39738982 31.93664839 3.80612226 39.0625 4.875 C43.38692906 6.78772824 46.41857435 9.58294233 49.3125 13.3125 C49.3125 13.9725 49.3125 14.6325 49.3125 15.3125 C50.3025 15.6425 51.2925 15.9725 52.3125 16.3125 C51.3225 16.3125 50.3325 16.3125 49.3125 16.3125 C49.3125 16.9725 49.3125 17.6325 49.3125 18.3125 C48.6525 18.3125 47.9925 18.3125 47.3125 18.3125 C47.9725 20.6225 48.6325 22.9325 49.3125 25.3125 C48.3225 24.9825 47.3325 24.6525 46.3125 24.3125 C46.044375 23.054375 45.77625 21.79625 45.5 20.5 C44.75740128 17.24309067 44.34756389 16.34940936 41.9375 13.8125 C36.70220204 11.64616981 31.90116498 11.51630663 26.3125 12.3125 C23.87683074 13.39501967 22.37554472 14.57519918 20.3125 16.3125 C19.6525 16.3125 18.9925 16.3125 18.3125 16.3125 C17.9825 17.6325 17.6525 18.9525 17.3125 20.3125 C16.6525 20.3125 15.9925 20.3125 15.3125 20.3125 C15.3125 18.6625 15.3125 17.0125 15.3125 15.3125 C14.6525 15.3125 13.9925 15.3125 13.3125 15.3125 C12.879375 14.52875 12.44625 13.745 12 12.9375 C9.98122535 9.79718388 8.85552332 9.3012507 5.3125 8.3125 C3.3200675 7.93656934 1.3206326 7.59270455 -0.6875 7.3125 C-0.6875 6.9825 -0.6875 6.6525 -0.6875 6.3125 C0.281875 6.18875 1.25125 6.065 2.25 5.9375 C3.260625 5.73125 4.27125 5.525 5.3125 5.3125 C5.6425 4.6525 5.9725 3.9925 6.3125 3.3125 C2.0225 2.9825 -2.2675 2.6525 -6.6875 2.3125 C-4.21750317 -0.15749683 -3.40535184 0.0156448 0 0 Z " fill="#6A6A6A" transform="translate(126.6875,246.6875)"/>
<path d="M0 0 C0.66 0 1.32 0 2 0 C2 0.66 2 1.32 2 2 C2.99 2.33 3.98 2.66 5 3 C4.01 3 3.02 3 2 3 C2 3.66 2 4.32 2 5 C1.34 5 0.68 5 0 5 C0.66 7.31 1.32 9.62 2 12 C1.01 11.67 0.02 11.34 -1 11 C-1.125 3.375 -1.125 3.375 0 0 Z " fill="#727272" transform="translate(174,260)"/>
<path d="M0 0 C1.9375 0.8125 1.9375 0.8125 4 2 C4.33 2.99 4.66 3.98 5 5 C7.00016466 6.20882096 7.00016466 6.20882096 9 7 C8.67 7.99 8.34 8.98 8 10 C6.66070495 8.71451591 5.32871357 7.42141845 4 6.125 C2.88625 5.04605469 2.88625 5.04605469 1.75 3.9453125 C0 2 0 2 0 0 Z " fill="#636363" transform="translate(391,164)"/>
<path d="M0 0 C0 0.66 0 1.32 0 2 C-4.65537393 2.83796731 -8.37078475 3.0161692 -13 2 C-13 1.67 -13 1.34 -13 1 C-11.39602723 0.83147753 -9.7918131 0.66525114 -8.1875 0.5 C-7.29417969 0.4071875 -6.40085938 0.314375 -5.48046875 0.21875 C-3 0 -3 0 0 0 Z " fill="#8F8F8F" transform="translate(173,170)"/>
</svg>
